<svg width="92" height="92" viewBox="0 0 92 92" fill="none" xmlns="http://www.w3.org/2000/svg" aria-hidden="true">
  <circle cx="70" cy="20" r="6" fill="#9A82DB" opacity="0.9" />
  <circle cx="58" cy="13" r="4" fill="#B8A6E8" opacity="0.95" />
  <circle cx="76" cy="33" r="4.5" fill="#CFC2F1" opacity="0.9" />

  <path
    d="M16 56C16 50.8 20.2 46.6 25.4 46.6H39.2C43.6 46.6 47.6 44.5 50.1 40.9L53.1 36.6C54.7 34.2 58.4 34.6 59.5 37.2L65.6 51.5C66.4 53.4 68.2 54.6 70.2 54.6H73.9C78.4 54.6 82 58.2 82 62.7V65.4C82 70.9 77.5 75.4 72 75.4H26C20.5 75.4 16 70.9 16 65.4V56Z"
    fill="#6750A4"
  />

  <path
    d="M40.8 46.8L46.8 38.6C47.8 37.2 49.8 37.5 50.5 39L55.7 50.7"
    stroke="white"
    stroke-width="2.6"
    stroke-linecap="round"
    stroke-linejoin="round"
    opacity="0.95"
  />

  <circle cx="33" cy="61.5" r="4.8" fill="white" opacity="0.95" />
  <circle cx="66" cy="61.5" r="4.8" fill="white" opacity="0.95" />
</svg>
